<?xml version="1.0" encoding="UTF-8"?>
<svg width="15px" height="19px" viewBox="0 0 15 19" version="1.1" xmlns="http://www.w3.org/2000/svg" xmlns:xlink="http://www.w3.org/1999/xlink">
    <!-- Generator: sketchtool 48.2 (47327) - http://www.bohemiancoding.com/sketch -->
    <title>C97A1D44-BE74-4596-B411-E220C17BF3E1</title>
    <desc>Created with sketchtool.</desc>
    <defs></defs>
    <g id="right_side_arrow_q-a" stroke="none" stroke-width="1" fill="none" fill-rule="evenodd" transform="translate(-10.000000, -45.000000)">
        <g id="right_side_arrow_Group-2" transform="translate(0.000000, 5.000000)" fill="#1AE8C9">
            <g id="right_side_arrow_right-side-arrow" transform="translate(10.000000, 40.000000)">
                <path d="M9.4689226,5.28758333 C9.31155724,5.1042042 9.09080885,5.00001247 8.85962701,5 C8.63013106,5 8.41033213,5.10383333 8.2519476,5.28758333 C7.91601747,5.67821026 7.91601747,6.28353974 8.2519476,6.67416667 L12.9242912,12.0011667 L8.2519476,17.327 C7.91635177,17.7175448 7.91635177,18.3224552 8.2519476,18.713 C8.41033213,18.8961667 8.63013106,19 8.86016574,19 C9.08966169,19 9.30946063,18.8961667 9.46784515,18.713 L14.7478682,12.693 C14.9105625,12.5075 15.0010679,12.259 14.9999905,12.0005833 C14.9999905,11.74975 14.9159497,11.4989167 14.7478682,11.3075833 L9.4689226,5.28758333 Z" id="Shape"></path>
                <path d="M2,11 L12.9999727,11 C13.5522725,11 14,11.4477275 14,12.0000273 L14,12.0000273 C14,12.5523271 13.5522725,13.0000546 12.9999727,13.0000546 L1.5,13.0000546 C0.671572875,13.0000546 1.01453063e-16,12.3284817 0,11.5000546 L0,1 C-6.76353751e-17,0.44771525 0.44771525,1.01453063e-16 1,0 L1,0 C1.55228475,-1.01453063e-16 2,0.44771525 2,1 L2,11 Z" id="Rectangle-path"></path>
            </g>
        </g>
    </g>
</svg>