<?xml version="1.0" encoding="UTF-8"?>
<svg width="166px" height="141px" viewBox="0 0 166 141" version="1.1" xmlns="http://www.w3.org/2000/svg" xmlns:xlink="http://www.w3.org/1999/xlink">
    <!-- Generator: sketchtool 46.2 (44496) - http://www.bohemiancoding.com/sketch -->
    <title>9AB6A91C-BBF3-40BC-8581-1E849C7AD428</title>
    <desc>Created with sketchtool.</desc>
    <defs>
        <linearGradient x1="100%" y1="119.45485%" x2="27.4908247%" y2="0%" id="solution_3_linearGradient-1">
            <stop stop-color="#E4EAF2" offset="0%"></stop>
            <stop stop-color="#FDFDFE" offset="92.6849206%"></stop>
            <stop stop-color="#FFFFFF" offset="100%"></stop>
        </linearGradient>
        <path d="M77.6876202,0.0709043991 L158.227305,21.6867934 L158.227305,21.6867934 C158.760712,21.8299536 159.07707,22.3784202 158.93391,22.9118277 C158.871946,23.1427008 158.72933,23.3437399 158.531903,23.4785158 L80.6444788,76.6493493 L80.6444788,76.6493493 C80.1624476,76.978414 79.5607248,77.0805018 78.9971333,76.9288368 L0.770835907,55.8777773 L0.770835907,55.8777773 C0.237524167,55.7342606 -0.0784671771,55.1855828 0.0650494861,54.652271 C0.125402074,54.4279992 0.261935833,54.2317278 0.45121703,54.0971436 L76.0102337,0.372569311 L76.0102337,0.372569311 C76.4963956,0.0268946112 77.1114827,-0.0837240246 77.6876202,0.0709043991 Z" id="solution_3_path-2"></path>
        <path d="M77.8032266,39.6663854 L104.093282,46.6166544 L104.093282,46.6166544 C104.627223,46.7578118 104.945637,47.3050871 104.80448,47.8390282 C104.742436,48.0737128 104.597146,48.2778171 104.395706,48.413273 L78.7480913,65.6597363 L78.7480913,65.6597363 C78.2700053,65.9812201 77.6765063,66.0809223 77.1196157,65.9333047 L51.591441,59.1664338 L51.591441,59.1664338 C51.0575932,59.0249243 50.7395401,58.477439 50.8810496,57.9435912 C50.9415151,57.7154836 51.0807031,57.5161092 51.2739955,57.3807311 L76.1447084,39.9617855 L76.1447084,39.9617855 C76.6270913,39.6239343 77.2338589,39.5158624 77.8032266,39.6663854 Z" id="solution_3_path-3"></path>
        <path d="M21.5673453,48.4696093 L47.814198,55.4842187 L47.814198,55.4842187 C48.3467785,55.6265536 48.663135,56.1736806 48.5208001,56.7062611 C48.462735,56.9235255 48.3330026,57.1148154 48.1526277,57.2491296 L47.274584,57.9029556 L47.274584,57.9029556 C46.7840022,58.268262 46.1532294,58.3889979 45.562421,58.2306796 L19.5334731,51.2557332 L19.5334731,51.2557332 C19.0000096,51.1127816 18.6834371,50.5644389 18.8263887,50.0309754 C18.8684103,49.8741601 18.94798,49.7299336 19.0582233,49.6107561 L19.5827854,49.0436837 L19.5827854,49.0436837 C20.0866115,48.4990277 20.8505517,48.2780424 21.5673453,48.4696093 Z" id="solution_3_path-4"></path>
        <path d="M27.0881786,44.0696093 L53.3350314,51.0842187 L53.3350314,51.0842187 C53.8676118,51.2265536 54.1839683,51.7736806 54.0416334,52.3062611 C53.9835684,52.5235255 53.8538359,52.7148154 53.6734611,52.8491296 L52.7954173,53.5029556 L52.7954173,53.5029556 C52.3048356,53.868262 51.6740628,53.9889979 51.0832544,53.8306796 L25.0543064,46.8557332 L25.0543064,46.8557332 C24.5208429,46.7127816 24.2042705,46.1644389 24.347222,45.6309754 C24.3892437,45.4741601 24.4688133,45.3299336 24.5790567,45.2107561 L25.1036187,44.6436837 L25.1036187,44.6436837 C25.6074448,44.0990277 26.371385,43.8780424 27.0881786,44.0696093 Z" id="solution_3_path-5"></path>
        <path d="M33.7131786,39.6696093 L59.9600314,46.6842187 L59.9600314,46.6842187 C60.4926118,46.8265536 60.8089683,47.3736806 60.6666334,47.9062611 C60.6085684,48.1235255 60.4788359,48.3148154 60.2984611,48.4491296 L59.4204173,49.1029556 L59.4204173,49.1029556 C58.9298356,49.468262 58.2990628,49.5889979 57.7082544,49.4306796 L31.6793064,42.4557332 L31.6793064,42.4557332 C31.1458429,42.3127816 30.8292705,41.7644389 30.972222,41.2309754 C31.0142437,41.0741601 31.0938133,40.9299336 31.2040567,40.8107561 L31.7286187,40.2436837 L31.7286187,40.2436837 C32.2324448,39.6990277 32.996385,39.4780424 33.7131786,39.6696093 Z" id="solution_3_path-6"></path>
        <linearGradient x1="-87.2768055%" y1="0%" x2="65.2157219%" y2="160.736863%" id="solution_3_linearGradient-7">
            <stop stop-color="#29DCF9" offset="0%"></stop>
            <stop stop-color="#1FF2D2" offset="100%"></stop>
        </linearGradient>
        <rect id="solution_3_path-8" x="42.8492603" y="33.3494367" width="4.52240964" height="26.7692308" rx="2.26120482"></rect>
    </defs>
    <g id="solution_3_Page-1" stroke="none" stroke-width="1" fill="none" fill-rule="evenodd">
        <g id="solution_3_Company-about-us" transform="translate(-884.000000, -1737.000000)">
            <g id="solution_3_solution_3" transform="translate(861.000000, 1691.000000)">
                <path d="M79.2900719,177.619707 C122.367717,183.72105 181.359246,169.483842 181.715698,128.213319 C182.072149,86.9427969 117.312082,34.6063984 80.5702174,29.4024304 C43.828353,24.1984623 28.3181651,70.5359625 28.0080396,106.442793 C27.697914,142.349623 36.2124264,171.518365 79.2900719,177.619707 Z" id="solution_3_Oval-4" fill="#ECF1FA" transform="translate(104.858582, 103.985332) rotate(-30.000000) translate(-104.858582, -103.985332) "></path>
                <g id="solution_3_Group-18" transform="translate(26.000000, 72.000000)">
                    <g id="solution_3_Group-17" transform="translate(0.000000, 21.000000)">
                        <g id="solution_3_Rectangle-11">
                            <use fill="url(#solution_3_linearGradient-1)" fill-rule="evenodd" xlink:href="#solution_3_path-2"></use>
                            <path stroke="#5F7591" stroke-width="2" d="M77.4284057,1.03672418 C77.140337,0.959409968 76.8327934,1.01471929 76.5897125,1.18755664 L1.03069581,54.9121309 L79.2569932,75.9631904 C79.5387889,76.039023 79.8396503,75.987979 80.0806659,75.8234467 L157.96809,22.6526132 L77.4284057,1.03672418 Z"></path>
                        </g>
                        <g id="solution_3_Rectangle-11">
                            <use fill="#E7EAF2" fill-rule="evenodd" xlink:href="#solution_3_path-3"></use>
                            <path stroke="#5F7591" stroke-width="1" d="M77.6754326,40.1497783 C77.2484069,40.036886 76.7933311,40.11794 76.431544,40.3713284 L51.560831,57.790274 C51.4641849,57.857963 51.3945909,57.9576502 51.3643581,58.071704 C51.2936034,58.3386279 51.4526299,58.6123706 51.7195538,58.6831253 L77.2477286,65.4499962 C77.6653965,65.5607094 78.1105207,65.4859327 78.4690852,65.2448199 L104.1167,47.9983566 C104.21742,47.9306287 104.290065,47.8285765 104.321087,47.7112342 C104.391665,47.4442637 104.232458,47.170626 103.965488,47.1000473 L77.6754326,40.1497783 Z"></path>
                        </g>
                        <g id="solution_3_Rectangle-11">
                            <use fill="#E7EAF2" fill-rule="evenodd" xlink:href="#solution_3_path-4"></use>
                            <path stroke="#5F7591" stroke-width="1" d="M21.4382486,48.9526559 C20.9006534,48.8089808 20.3276982,48.9747197 19.9498286,49.3832117 L19.4252666,49.9502841 C19.3701449,50.0098729 19.3303601,50.0819861 19.3093493,50.1603938 C19.2378735,50.4271255 19.3961597,50.7012969 19.6628914,50.7727727 L45.6918394,57.7477191 C46.1349457,57.8664578 46.6080253,57.7759059 46.9759616,57.5019261 L47.8540054,56.8481001 C47.9440272,56.7810663 48.0087743,56.685597 48.0377535,56.5771643 C48.1087902,56.3113631 47.9509025,56.038302 47.6851013,55.9672653 L21.4382486,48.9526559 Z"></path>
                        </g>
                        <g id="solution_3_Rectangle-11">
                            <use fill="#E7EAF2" fill-rule="evenodd" xlink:href="#solution_3_path-5"></use>
                            <path stroke="#5F7591" stroke-width="1" d="M26.9590819,44.5526559 C26.4214867,44.4089808 25.8485315,44.5747197 25.470662,44.9832117 L24.9460999,45.5502841 C24.8909782,45.6098729 24.8511934,45.6819861 24.8301826,45.7603938 C24.7587068,46.0271255 24.916993,46.3012969 25.1837248,46.3727727 L51.2126727,53.3477191 C51.655779,53.4664578 52.1288586,53.3759059 52.4967949,53.1019261 L53.3748387,52.4481001 C53.4648605,52.3810663 53.5296076,52.285597 53.5585868,52.1771643 C53.6296236,51.9113631 53.4717358,51.638302 53.2059346,51.5672653 L26.9590819,44.5526559 Z"></path>
                        </g>
                        <g id="solution_3_Rectangle-11">
                            <use fill="#E7EAF2" fill-rule="evenodd" xlink:href="#solution_3_path-6"></use>
                            <path stroke="#5F7591" stroke-width="1" d="M33.5840819,40.1526559 C33.0464867,40.0089808 32.4735315,40.1747197 32.095662,40.5832117 L31.5710999,41.1502841 C31.5159782,41.2098729 31.4761934,41.2819861 31.4551826,41.3603938 C31.3837068,41.6271255 31.541993,41.9012969 31.8087248,41.9727727 L57.8376727,48.9477191 C58.280779,49.0664578 58.7538586,48.9759059 59.1217949,48.7019261 L59.9998387,48.0481001 C60.0898605,47.9810663 60.1546076,47.885597 60.1835868,47.7771643 C60.2546236,47.5113631 60.0967358,47.238302 59.8309346,47.1672653 L33.5840819,40.1526559 Z"></path>
                        </g>
                    </g>
                    <g id="solution_3_Group-14" transform="translate(36.000000, 0.000000)">
                        <g id="solution_3_Group-13" transform="translate(0.000000, 12.037736)">
                            <ellipse id="solution_3_Oval" fill="url(#solution_3_linearGradient-7)" cx="5.67901235" cy="21.4855346" rx="5.67901235" ry="5.65408805"></ellipse>
                            <ellipse id="solution_3_Oval" fill="url(#solution_3_linearGradient-7)" cx="31.8024691" cy="5.65408805" rx="5.67901235" ry="5.65408805"></ellipse>
                            <ellipse id="solution_3_Oval" fill="url(#solution_3_linearGradient-7)" cx="56.7901235" cy="28.2704403" rx="5.67901235" ry="5.65408805"></ellipse>
                            <ellipse id="solution_3_Oval" fill="url(#solution_3_linearGradient-7)" cx="86.3209877" cy="16.9622642" rx="5.67901235" ry="5.65408805"></ellipse>
                            <polyline id="solution_3_Path-5" stroke="#23EAE0" stroke-width="2.4" points="5.67901235 21.4855346 31.8024691 5.65408805 56.7901235 29.4012579 85.1851852 17.527673"></polyline>
                        </g>
                        <g id="solution_3_Group-11" transform="translate(4.433735, 0.000000)">
                            <ellipse id="solution_3_Oval-7" stroke="#5F7591" stroke-width="2.4" fill-opacity="0.5" fill="#FFFFFF" cx="21.4814458" cy="21.1923077" rx="21.4814458" ry="21.1923077"></ellipse>
                            <g id="solution_3_Rectangle-2" transform="translate(45.110465, 46.734052) rotate(-45.000000) translate(-45.110465, -46.734052) ">
                                <use fill="#D8D8D8" fill-rule="evenodd" xlink:href="#solution_3_path-8"></use>
                                <rect stroke="#5F7591" stroke-width="2.4" x="44.0492603" y="34.5494367" width="2.12240964" height="24.3692308" rx="1.06120482"></rect>
                            </g>
                        </g>
                    </g>
                </g>
            </g>
        </g>
    </g>
</svg>