<?xml version="1.0" encoding="UTF-8"?>
<svg width="166px" height="141px" viewBox="0 0 166 141" version="1.1" xmlns="http://www.w3.org/2000/svg" xmlns:xlink="http://www.w3.org/1999/xlink">
    <!-- Generator: sketchtool 46.2 (44496) - http://www.bohemiancoding.com/sketch -->
    <title>CB873A13-26A8-42F4-987A-8B4E32B2E641</title>
    <desc>Created with sketchtool.</desc>
    <defs>
        <linearGradient x1="100%" y1="119.45485%" x2="27.4908247%" y2="0%" id="solution_1_linearGradient-1">
            <stop stop-color="#E4EAF2" offset="0%"></stop>
            <stop stop-color="#FDFDFE" offset="92.6849206%"></stop>
            <stop stop-color="#FFFFFF" offset="100%"></stop>
        </linearGradient>
        <path d="M82.2814582,23.1696438 L160.423966,57.5840545 L160.423966,57.5840545 C160.929405,57.8066527 161.158692,58.3968434 160.936094,58.9022823 C160.835372,59.1309855 160.652669,59.3136884 160.423966,59.4144106 L82.2814582,93.8288213 L82.2814582,93.8288213 C81.7735421,94.0525104 81.1955151,94.0550893 80.6856234,93.8359411 L0.605388242,59.4179705 L0.605388242,59.4179705 C0.0979832567,59.1998911 -0.13656147,58.6117698 0.0815179326,58.1043649 C0.182628961,57.86911 0.370133378,57.6816056 0.605388242,57.5804946 L80.6856234,23.162524 L80.6856234,23.162524 C81.1955151,22.9433758 81.7735421,22.9459547 82.2814582,23.1696438 Z" id="solution_1_path-2"></path>
        <linearGradient x1="47.7582064%" y1="0.873896723%" x2="45.9230556%" y2="95.8181158%" id="solution_1_linearGradient-3">
            <stop stop-color="#29DCFA" offset="0%"></stop>
            <stop stop-color="#29DCF9" stop-opacity="0" offset="0%"></stop>
            <stop stop-color="#1FF2D2" offset="100%"></stop>
        </linearGradient>
        <linearGradient x1="-3.18273809%" y1="39.9599418%" x2="96.8806269%" y2="50%" id="solution_1_linearGradient-4">
            <stop stop-color="#29DCF9" offset="0%"></stop>
            <stop stop-color="#29DCF9" offset="0%"></stop>
            <stop stop-color="#1FF2D2" offset="100%"></stop>
        </linearGradient>
        <path d="M82.0207564,8.17127709 L139.409455,33.5842261 L139.409455,33.5842261 C139.914443,33.8078456 140.142537,34.3984986 139.918918,34.9034865 C139.818298,35.1307104 139.636679,35.3123294 139.409455,35.4129491 L82.0207564,60.8258981 L82.0207564,60.8258981 C81.510743,61.051743 80.9295872,61.0543455 80.4175715,60.8330774 L21.6035614,35.4165387 L21.6035614,35.4165387 C21.096591,35.1974509 20.8632161,34.6088644 21.0823039,34.101894 C21.1833373,33.868102 21.3697694,33.68167 21.6035614,33.5806365 L80.4175715,8.16409782 L80.4175715,8.16409782 C80.9295872,7.94282969 81.510743,7.94543218 82.0207564,8.17127709 Z" id="solution_1_path-5"></path>
        <linearGradient x1="50%" y1="100%" x2="50%" y2="0%" id="solution_1_linearGradient-6">
            <stop stop-color="#5F7591" offset="0%"></stop>
            <stop stop-color="#5F7591" stop-opacity="0" offset="100%"></stop>
        </linearGradient>
        <linearGradient x1="100%" y1="50%" x2="27.4908247%" y2="0%" id="solution_1_linearGradient-7">
            <stop stop-color="#E4EAF2" offset="0%"></stop>
            <stop stop-color="#FFFFFF" offset="100%"></stop>
        </linearGradient>
        <path d="M81.4823077,0.171242864 L122.731188,18.435048 L122.731188,18.435048 C123.236185,18.6586461 123.464304,19.2492894 123.240706,19.7542868 C123.140084,19.9815416 122.958442,20.1631833 122.731188,20.2638051 L81.4823077,38.5276102 L81.4823077,38.5276102 C80.972338,38.7534099 80.3912477,38.7560119 79.8792764,38.5347882 L37.6035996,20.2673941 L37.6035996,20.2673941 C37.0966201,20.0483274 36.8632207,19.4597506 37.0822874,18.9527711 C37.1833225,18.7189485 37.369777,18.5324941 37.6035996,18.4314589 L79.8792764,0.164064836 L79.8792764,0.164064836 C80.3912477,-0.0571588691 80.972338,-0.0545568722 81.4823077,0.171242864 Z" id="solution_1_path-8"></path>
        <path d="M60.8978669,21.1739027 L67.4035709,24.0873381 L67.4035709,24.0873381 C67.9076202,24.3130654 68.1332447,24.9046662 67.9075174,25.4087154 C67.8071268,25.6328877 67.6277432,25.8122713 67.4035709,25.9126619 L60.8978669,28.8260973 L60.8978669,28.8260973 C60.3835361,29.056429 59.7958993,29.0590805 59.2795109,28.8333998 L52.6048177,25.9163131 L52.6048177,25.9163131 C52.0987519,25.6951437 51.8677978,25.1056032 52.0889671,24.5995374 C52.1898238,24.3687636 52.3740439,24.1845435 52.6048177,24.0836869 L59.2795109,21.1666002 L59.2795109,21.1666002 C59.7958993,20.9409195 60.3835361,20.943571 60.8978669,21.1739027 Z" id="solution_1_path-9"></path>
    </defs>
    <g id="solution_1_Page-1" stroke="none" stroke-width="1" fill="none" fill-rule="evenodd">
        <g id="solution_1_Company-about-us" transform="translate(-151.000000, -1736.000000)">
            <g id="solution_1_solution_1" transform="translate(129.000000, 1691.000000)">
                <path d="M78.4856406,177.002869 C121.563286,183.104211 180.554815,168.867003 180.911266,127.596481 C181.267718,86.3259581 116.50765,33.9895595 79.7657861,28.7855915 C43.0239217,23.5816235 27.5137338,69.9191236 27.2036083,105.825954 C26.8934827,141.732784 35.4079951,170.901526 78.4856406,177.002869 Z" id="solution_1_Oval-4" fill="#ECF1FA" transform="translate(104.054150, 103.368493) rotate(-30.000000) translate(-104.054150, -103.368493) "></path>
                <g id="solution_1_Group-19" transform="translate(24.000000, 72.000000)">
                    <g id="solution_1_Rectangle-11">
                        <use fill="url(#solution_1_linearGradient-1)" fill-rule="evenodd" xlink:href="#solution_1_path-2"></use>
                        <path stroke="#5F7591" stroke-width="2" d="M81.8784085,24.0848219 C81.6244504,23.9729773 81.335437,23.9716879 81.0804911,24.081262 L1.00025593,58.4992326 L81.0804911,92.9172031 C81.335437,93.0267772 81.6244504,93.0254878 81.8784085,92.9136432 L160.020916,58.4992326 L81.8784085,24.0848219 Z"></path>
                    </g>
                    <path d="M98.6625687,45.257197 L86.1119434,69.5278422 L86.1119434,69.5278422 C85.8582614,70.0184173 86.0503013,70.6217569 86.5408764,70.8754388 C86.5621605,70.886445 86.5838333,70.8966827 86.6058528,70.906132 L108.529644,80.3143569 L108.529644,80.3143569 C109.037745,80.5323996 109.61344,80.530372 110.119992,80.3087555 L131.443286,70.9798146 L131.443286,70.9798146 C131.949266,70.7584485 132.17999,70.1688182 131.958624,69.6628385 C131.929961,69.5973222 131.894353,69.5350696 131.85241,69.477149 L114.221225,45.1292267 L114.221225,45.1292267 C114.032474,44.8685702 113.78361,44.6573115 113.495765,44.5133889 L106.89128,41.2111463 L106.89128,41.2111463 C106.293171,40.9120917 105.585175,40.9317432 105.004575,41.2635144 L99.4468203,44.4393743 L99.4468203,44.4393743 C99.1120323,44.6306817 98.8396835,44.9146888 98.6625687,45.257197 Z" id="solution_1_Path-2" fill="url(#solution_1_linearGradient-3)" opacity="0.664911685"></path>
                    <path d="M109.879768,59.6292879 C109.496199,59.4588086 109.058746,59.4568447 108.673661,59.6238733 L85.8012916,69.5446469 C85.6848889,69.595136 85.5920345,69.6879905 85.5415454,69.8043932 C85.4316614,70.0577311 85.5479537,70.3521807 85.8012916,70.4620647 L108.673661,80.3828384 C109.058746,80.5498669 109.496199,80.5479031 109.879768,80.3774238 L132.192874,70.4602599 C132.305988,70.4099862 132.396432,70.3195421 132.446705,70.206429 C132.55886,69.9540878 132.445216,69.658606 132.192874,69.5464518 L109.879768,59.6292879 Z" id="solution_1_Rectangle-11" stroke="#5F7591"></path>
                    <g id="solution_1_Rectangle-11">
                        <use fill="url(#solution_1_linearGradient-4)" fill-rule="evenodd" xlink:href="#solution_1_path-5"></use>
                        <path stroke="#5F7591" stroke-width="2" d="M81.6158575,9.08563855 C81.3608508,8.97271609 81.0702729,8.97141485 80.8142651,9.08204891 L22.000255,34.4985876 L80.8142651,59.9151263 C81.0702729,60.0257603 81.3608508,60.0244591 81.6158575,59.9115366 L139.004556,34.4985876 L81.6158575,9.08563855 Z"></path>
                    </g>
                    <path d="M51.8770068,25.4728404 L43.2305677,41.9010746 L43.2305677,41.9010746 C42.7161184,42.8785283 43.0914576,44.0879546 44.0689113,44.6024039 C44.1243002,44.6315559 44.181027,44.6580917 44.2389046,44.6819237 L58.4220716,50.5220512 L58.4220716,50.5220512 C58.9238525,50.7286669 59.4880517,50.722516 59.9852089,50.5050097 L73.4002153,44.6359444 L73.4002153,44.6359444 C74.4022513,44.1975537 74.866281,43.0355432 74.4418484,42.0275157 L67.5415881,25.6393975 L67.5415881,25.6393975 C67.3281806,25.1325546 66.9154878,24.7359495 66.4005642,24.5428531 L59.9592007,22.1273418 L59.9592007,22.1273418 C59.4766304,21.946378 58.9428291,21.9586899 58.4691152,22.1617101 L52.8590046,24.5660432 L52.8590046,24.5660432 C52.4373646,24.7467461 52.0906589,25.0669013 51.8770068,25.4728404 Z" id="solution_1_Path-2" fill="url(#solution_1_linearGradient-6)" opacity="0.633152174"></path>
                    <path d="M107.693509,41.6302336 C107.307761,41.4574849 106.867034,41.4554962 106.479742,41.6247568 L99.805049,44.5418434 C99.689662,44.5922718 99.597552,44.6843818 99.5471237,44.7997687 C99.436539,45.0528016 99.5520161,45.3475719 99.805049,45.4581566 L106.479742,48.3752432 C106.867034,48.5445038 107.307761,48.5425151 107.693509,48.3697664 L114.199213,45.4563309 C114.311299,45.4061356 114.400991,45.3164438 114.451186,45.2043577 C114.56405,44.9523331 114.451238,44.6565327 114.199213,44.5436691 L107.693509,41.6302336 Z" id="solution_1_Rectangle-11" stroke="#5F7591"></path>
                    <path d="M60.0106922,36.6260575 C59.6312752,36.459842 59.2000135,36.4579249 58.8191338,36.6207605 L43.8037036,43.0402357 C43.6853704,43.0908261 43.5911008,43.1850958 43.5405104,43.303429 C43.431957,43.55734 43.5497926,43.8511754 43.8037036,43.9597287 L58.8191338,50.3792039 C59.2000135,50.5420396 59.6312752,50.5401224 60.0106922,50.3739069 L74.6562439,43.957963 C74.7713094,43.907555 74.8631838,43.8156805 74.9135919,43.7006151 C75.0243984,43.4476793 74.9091798,43.1528079 74.6562439,43.0420014 L60.0106922,36.6260575 Z" id="solution_1_Rectangle-11" stroke="#5F7591"></path>
                    <g id="solution_1_Rectangle-11">
                        <use fill="url(#solution_1_linearGradient-7)" fill-rule="evenodd" xlink:href="#solution_1_path-8"></use>
                        <path stroke="#5F7591" stroke-width="2" d="M81.0774474,1.08562144 C80.8224626,0.972721568 80.5319174,0.97142057 80.2759318,1.08203242 L38.000255,19.3494265 L80.2759318,37.6168206 C80.5319174,37.7274325 80.8224626,37.7261315 81.0774474,37.6132316 L122.326327,19.3494265 L81.0774474,1.08562144 Z"></path>
                    </g>
                    <g id="solution_1_Rectangle-11">
                        <use fill="#FFFFFF" fill-rule="evenodd" xlink:href="#solution_1_path-9"></use>
                        <path stroke="#5F7591" stroke-width="1" d="M60.6935092,21.6302336 C60.3077611,21.4574849 59.8670335,21.4554962 59.4797422,21.6247568 L52.805049,24.5418434 C52.689662,24.5922718 52.597552,24.6843818 52.5471237,24.7997687 C52.436539,25.0528016 52.5520161,25.3475719 52.805049,25.4581566 L59.4797422,28.3752432 C59.8670335,28.5445038 60.3077611,28.5425151 60.6935092,28.3697664 L67.1992132,25.4563309 C67.3112994,25.4061356 67.4009912,25.3164438 67.4511865,25.2043577 C67.5640501,24.9523331 67.4512379,24.6565327 67.1992132,24.5436691 L60.6935092,21.6302336 Z"></path>
                    </g>
                </g>
            </g>
        </g>
    </g>
</svg>