<?xml version="1.0" encoding="UTF-8"?>
<svg width="183px" height="177px" viewBox="0 0 183 177" version="1.1" xmlns="http://www.w3.org/2000/svg" xmlns:xlink="http://www.w3.org/1999/xlink">
    <!-- Generator: sketchtool 46.2 (44496) - http://www.bohemiancoding.com/sketch -->
    <title>9122ACA4-B512-4987-A98B-9F791AFDC728</title>
    <desc>Created with sketchtool.</desc>
    <defs>
        <rect id="suakit_feature_3_path-1" x="95" y="96" width="78.5590044" height="80.1176651"></rect>
        <rect id="suakit_feature_3_path-2" x="100.197368" y="100.153846" width="68.7391289" height="58.1907252"></rect>
        <radialGradient cx="50%" cy="21.4210746%" fx="50%" fy="21.4210746%" r="154.904142%" gradientTransform="translate(0.500000,0.214211),scale(0.878548,1.000000),rotate(90.000000),translate(-0.500000,-0.214211)" id="suakit_feature_3_radialGradient-3">
            <stop stop-color="#FFFFFF" offset="0%"></stop>
            <stop stop-color="#5F7591" offset="100%"></stop>
        </radialGradient>
        <rect id="suakit_feature_3_path-4" x="0" y="33" width="75.2201005" height="78.0045872"></rect>
        <rect id="suakit_feature_3_path-5" x="5.12864322" y="38.7477064" width="75.2201005" height="78.0045872"></rect>
        <rect id="suakit_feature_3_path-6" x="10.2572864" y="44.4954128" width="75.2201005" height="78.0045872"></rect>
        <rect id="suakit_feature_3_path-7" x="15.2572864" y="48.4954128" width="65.8175879" height="56.6559633"></rect>
        <radialGradient cx="50%" cy="21.4210746%" fx="50%" fy="21.4210746%" r="154.904142%" gradientTransform="translate(0.500000,0.214211),scale(0.877551,1.000000),rotate(90.000000),translate(-0.500000,-0.214211)" id="suakit_feature_3_radialGradient-8">
            <stop stop-color="#FFFFFF" offset="0%"></stop>
            <stop stop-color="#5F7591" offset="100%"></stop>
        </radialGradient>
        <linearGradient x1="-87.2768055%" y1="0%" x2="65.2157219%" y2="160.736863%" id="suakit_feature_3_linearGradient-9">
            <stop stop-color="#29DCF9" offset="0%"></stop>
            <stop stop-color="#1FF2D2" offset="100%"></stop>
        </linearGradient>
        <rect id="suakit_feature_3_path-10" x="104.341413" y="5.88778942" width="78.3407176" height="79.9057136"></rect>
        <rect id="suakit_feature_3_path-11" x="109.524339" y="10.0306466" width="68.5481279" height="58.0367815"></rect>
        <radialGradient cx="50%" cy="21.4210746%" fx="50%" fy="21.4210746%" r="154.904142%" gradientTransform="translate(0.500000,0.214211),scale(0.882353,1.000000),rotate(90.000000),translate(-0.500000,-0.214211)" id="suakit_feature_3_radialGradient-12">
            <stop stop-color="#FFFFFF" offset="0%"></stop>
            <stop stop-color="#5F7591" offset="100%"></stop>
        </radialGradient>
    </defs>
    <g id="suakit_feature_3_Page-1" stroke="none" stroke-width="1" fill="none" fill-rule="evenodd">
        <g id="suakit_feature_3_Product-suakit" transform="translate(-509.000000, -553.000000)">
            <g id="suakit_feature_3_suakit-feature-3" transform="translate(509.000000, 553.000000)">
                <g id="suakit_feature_3_Rectangle-16">
                    <use fill="#FFFFFF" fill-rule="evenodd" xlink:href="suakit_feature_3_#path-1"></use>
                    <rect stroke="#5F7591" stroke-width="1.9" x="95.95" y="96.95" width="76.6590044" height="78.2176651"></rect>
                </g>
                <g id="suakit_feature_3_Rectangle-16">
                    <use fill="#F5F7FB" fill-rule="evenodd" xlink:href="suakit_feature_3_#path-2"></use>
                    <rect stroke="#BBC2D0" stroke-width="1" x="100.697368" y="100.653846" width="67.7391289" height="57.1907252"></rect>
                </g>
                <path d="M133.96477,110.603247 C133.954051,110.60225 133.943427,110.601749 133.932899,110.601749 C130.75535,110.601749 128.263333,105.365499 118.900776,108.143475 C111.417965,110.36371 108.337662,118.18097 108.337662,126.580529 C108.337662,140.836035 119.79704,152.392405 133.932899,152.392405 C134.044881,152.392405 134.155279,152.389782 134.26411,152.384579 C148.297298,152.263812 159.636364,140.754136 159.636364,126.573662 C159.636364,118.174103 156.556061,110.356843 149.07325,108.136608 C139.710693,105.358632 137.218676,110.594882 134.041127,110.594882 C134.016208,110.594882 133.99075,110.597686 133.96477,110.603247 Z" id="suakit_feature_3_Combined-Shape" stroke="#5F7591" stroke-width="2" fill="url(#suakit_feature_3_radialGradient-3)"></path>
                <path d="M128.228995,113.612658 C129.973849,115.708861 131.718703,116.756962 133.463557,116.756962 C135.208411,116.756962 136.953264,115.708861 138.698118,113.612658" id="suakit_feature_3_Path-7" stroke="#5F7591" stroke-width="2" stroke-linecap="round"></path>
                <path d="M133.502366,115.708861 C133.34026,114.371546 133.685996,112.62471 134.539576,110.468354 C135.393155,108.311999 136.430365,106.565163 137.651206,105.227848" id="suakit_feature_3_Path-8" stroke="#5F7591" stroke-width="2" stroke-linecap="round"></path>
                <ellipse id="suakit_feature_3_Oval-13" fill="#9AA3B5" cx="147.596873" cy="129.858228" rx="1.57036841" ry="1.5721519"></ellipse>
                <ellipse id="suakit_feature_3_Oval-13" fill="#9AA3B5" cx="152.831434" cy="129.858228" rx="1.57036841" ry="1.5721519"></ellipse>
                <ellipse id="suakit_feature_3_Oval-13" fill="#9AA3B5" cx="145.503048" cy="135.098734" rx="1.57036841" ry="1.5721519"></ellipse>
                <ellipse id="suakit_feature_3_Oval-13" fill="#9AA3B5" cx="150.737609" cy="135.098734" rx="1.57036841" ry="1.5721519"></ellipse>
                <ellipse id="suakit_feature_3_Oval-13" fill="#9AA3B5" cx="143.409223" cy="140.339241" rx="1.57036841" ry="1.5721519"></ellipse>
                <ellipse id="suakit_feature_3_Oval-13" fill="#9AA3B5" cx="148.643785" cy="140.339241" rx="1.57036841" ry="1.5721519"></ellipse>
                <path d="M148.34809,123.403104 L148.34809,123.403104 L148.34809,123.403104 C151.659179,123.403104 154.344455,126.085174 154.348409,129.39626 L154.362759,141.409947 L154.362759,141.409947 C154.366707,144.715925 151.689884,147.399151 148.383906,147.403099 C148.381522,147.403102 148.379139,147.403104 148.376756,147.403104 L148.376756,147.403104 L148.376756,147.403104 C145.065667,147.403104 142.380391,144.721033 142.376437,141.409947 L142.362087,129.39626 L142.362087,129.39626 C142.358139,126.090282 145.034962,123.407057 148.34094,123.403108 C148.343324,123.403105 148.345707,123.403104 148.34809,123.403104 Z" id="suakit_feature_3_Rectangle-17" fill="#F54B5E" opacity="0.5" transform="translate(148.362423, 135.403104) rotate(24.000000) translate(-148.362423, -135.403104) "></path>
                <g id="suakit_feature_3_Rectangle-16">
                    <use fill="#FFFFFF" fill-rule="evenodd" xlink:href="suakit_feature_3_#path-4"></use>
                    <rect stroke="#5F7591" stroke-width="1.5" x="0.75" y="33.75" width="73.7201005" height="76.5045872"></rect>
                </g>
                <g id="suakit_feature_3_Rectangle-16">
                    <use fill="#FFFFFF" fill-rule="evenodd" xlink:href="suakit_feature_3_#path-5"></use>
                    <rect stroke="#5F7591" stroke-width="1.5" x="5.87864322" y="39.4977064" width="73.7201005" height="76.5045872"></rect>
                </g>
                <g id="suakit_feature_3_Rectangle-16">
                    <use fill="#FFFFFF" fill-rule="evenodd" xlink:href="suakit_feature_3_#path-6"></use>
                    <rect stroke="#5F7591" stroke-width="1.9" x="11.2072864" y="45.4454128" width="73.3201005" height="76.1045872"></rect>
                </g>
                <g id="suakit_feature_3_Rectangle-16">
                    <use fill="#F5F7FB" fill-rule="evenodd" xlink:href="suakit_feature_3_#path-7"></use>
                    <rect stroke="#BBC2D0" stroke-width="1" x="15.7572864" y="48.9954128" width="64.8175879" height="55.6559633"></rect>
                </g>
                <path d="M47.4787534,59.1287018 C47.4685148,59.1277502 47.4583668,59.1272727 47.448311,59.1272727 C44.413148,59.1272727 42.0327987,54.1313332 33.0897791,56.7818182 C25.9422741,58.9001581 23,66.3586553 23,74.3727273 C23,87.9739944 33.9458817,99 47.448311,99 C47.5552745,99 47.6607256,98.9974978 47.7646803,98.992533 C61.1690396,98.8773088 72,87.895854 72,74.3661754 C72,66.3521035 69.0577259,58.8936062 61.9102209,56.7752663 C52.9672013,54.1247813 50.586852,59.1207209 47.551689,59.1207209 C47.5278872,59.1207209 47.5035696,59.1233958 47.4787534,59.1287018 Z" id="suakit_feature_3_Combined-Shape" stroke="#5F7591" stroke-width="2" fill="url(#suakit_feature_3_radialGradient-8)"></path>
                <path d="M42,62 C43.6666667,64 45.3333333,65 47,65 C48.6666667,65 50.3333333,64 52,62" id="suakit_feature_3_Path-7" stroke="#5F7591" stroke-width="2" stroke-linecap="round"></path>
                <path d="M47.0370698,64 C46.8822278,62.7240593 47.212472,61.0573926 48.0278023,59 C48.8431327,56.9426074 49.8338652,55.2759407 51,54" id="suakit_feature_3_Path-8" stroke="#5F7591" stroke-width="2" stroke-linecap="round"></path>
                <path d="M30.4232233,68 C28.7116116,68 27,71.3269855 27,73.7484496 C27,78.0597869 33.0451042,75.0941042 33.8464465,73.7484496 C34.6477888,72.4027951 32.1348349,68 30.4232233,68 Z" id="suakit_feature_3_Path-10" fill="#9AA3B5"></path>
                <path d="M32.6716267,77.0214089 C31.2482091,77.3282796 29,78.270623 29,79.9483595 C29,82.9355141 33.9698608,82.0988057 34.7732906,80.9440777 C35.5767203,79.7893497 34.0950443,76.7145383 32.6716267,77.0214089 Z" id="suakit_feature_3_Path-10" fill="#9AA3B5" transform="translate(32.000000, 79.500000) rotate(-180.000000) translate(-32.000000, -79.500000) "></path>
                <path d="M30.0428651,68 C28.5214326,68 27,70.8833874 27,72.9819897 C27,76.7184819 32.373426,74.1482236 33.0857302,72.9819897 C33.7980345,71.8157557 31.5642977,68 30.0428651,68 Z" id="suakit_feature_3_Path-10" fill="#9AA3B5"></path>
                <path d="M32.189043,75.8222653 C31.0819404,76.1414108 29.3333333,77.1214479 29.3333333,78.8662939 C29.3333333,81.9729347 33.1987807,81.1027579 33.8236704,79.9018408 C34.4485602,78.7009237 33.2961456,75.5031198 32.189043,75.8222653 Z" id="suakit_feature_3_Path-10" fill="#9AA3B5" transform="translate(31.666667, 78.400000) rotate(-180.000000) translate(-31.666667, -78.400000) "></path>
                <ellipse id="suakit_feature_3_Oval-15" fill="url(#suakit_feature_3_linearGradient-9)" opacity="0.5" transform="translate(32.418278, 75.178477) rotate(-11.000000) translate(-32.418278, -75.178477) " cx="32.4182782" cy="75.1784766" rx="7.5316436" ry="10.6127705"></ellipse>
                <rect id="suakit_feature_3_Rectangle-16" stroke="#5F7591" stroke-width="1.5" x="99.75" y="0.75" width="76.8407176" height="78.4057136"></rect>
                <g id="suakit_feature_3_Rectangle-16">
                    <use fill="#FFFFFF" fill-rule="evenodd" xlink:href="suakit_feature_3_#path-10"></use>
                    <rect stroke="#5F7591" stroke-width="1.9" x="105.291413" y="6.83778942" width="76.4407176" height="78.0057136"></rect>
                </g>
                <g id="suakit_feature_3_Rectangle-16">
                    <use fill="#F5F7FB" fill-rule="evenodd" xlink:href="suakit_feature_3_#path-11"></use>
                    <rect stroke="#BBC2D0" stroke-width="1" x="110.024339" y="10.5306466" width="67.5481279" height="57.0367815"></rect>
                </g>
                <g id="suakit_feature_3_Group-13" transform="translate(119.000000, 16.000000)" stroke="#5F7591" stroke-width="2">
                    <path d="M25.4778862,5.27422278 C25.4672296,5.27322693 25.4566675,5.27272727 25.4462013,5.27272727 C22.2871541,5.27272727 19.8096476,0.0444184536 10.5016069,2.81818182 C3.06236691,5.03504913 0,12.8404533 0,21.2272727 C0,35.461157 11.3926524,47 25.4462013,47 C25.5575306,47 25.6672859,46.9973814 25.7754836,46.9921857 C34.4950793,46.9168217 42.1684296,42.3994904 46.6972976,35.565353 C49.4146822,31.4647743 51,26.5301063 51,21.2204161 C51,12.8335967 47.9376331,5.02819255 40.4983931,2.81132524 C31.1903524,0.0375618729 28.7128459,5.26587069 25.5537987,5.26587069 C25.5290255,5.26587069 25.5037153,5.26867001 25.4778862,5.27422278 Z" id="suakit_feature_3_Combined-Shape" fill="url(#suakit_feature_3_radialGradient-12)"></path>
                    <path d="M20,8 C21.6666667,10 23.3333333,11 25,11 C26.6666667,11 28.3333333,10 30,8" id="suakit_feature_3_Path-7" stroke-linecap="round"></path>
                    <path d="M25.0370698,10 C24.8822278,8.72405927 25.212472,7.0573926 26.0278023,5 C26.8431327,2.9426074 27.8338652,1.27594073 29,0" id="suakit_feature_3_Path-8" stroke-linecap="round"></path>
                </g>
            </g>
        </g>
    </g>
</svg>