<?xml version="1.0" encoding="UTF-8"?>
<svg width="137px" height="148px" viewBox="0 0 137 148" version="1.1" xmlns="http://www.w3.org/2000/svg" xmlns:xlink="http://www.w3.org/1999/xlink">
    <!-- Generator: sketchtool 46.2 (44496) - http://www.bohemiancoding.com/sketch -->
    <title>56ED9F1A-5899-425F-87BA-BDD051609BA2</title>
    <desc>Created with sketchtool.</desc>
    <defs>
        <linearGradient x1="-87.2768055%" y1="0%" x2="65.2157219%" y2="160.736863%" id="suakit_feature_1_linearGradient-1">
            <stop stop-color="#29DCF9" offset="0%"></stop>
            <stop stop-color="#20F0D6" offset="90.599666%"></stop>
            <stop stop-color="#1FF2D2" offset="100%"></stop>
        </linearGradient>
        <rect id="suakit_feature_1_path-2" x="0" y="0" width="137" height="148"></rect>
        <rect id="suakit_feature_1_path-3" x="9.19463087" y="8.27329193" width="119.530201" height="107.552795"></rect>
        <radialGradient cx="50%" cy="21.4210746%" fx="50%" fy="21.4210746%" r="154.904142%" gradientTransform="translate(0.500000,0.214211),scale(0.889640,1.000000),rotate(90.000000),translate(-0.500000,-0.214211)" id="suakit_feature_1_radialGradient-4">
            <stop stop-color="#FFFFFF" offset="0%"></stop>
            <stop stop-color="#5F7591" offset="100%"></stop>
        </radialGradient>
        <radialGradient cx="50%" cy="21.4210746%" fx="50%" fy="21.4210746%" r="284.784377%" gradientTransform="translate(0.500000,0.214211),scale(1.000000,0.603817),rotate(142.496782),translate(-0.500000,-0.214211)" id="suakit_feature_1_radialGradient-5">
            <stop stop-color="#FFFFFF" offset="0%"></stop>
            <stop stop-color="#5F7591" offset="100%"></stop>
        </radialGradient>
        <linearGradient x1="-34.4627979%" y1="-34.4501726%" x2="100%" y2="100%" id="suakit_feature_1_linearGradient-6">
            <stop stop-color="#FFB88D" offset="0%"></stop>
            <stop stop-color="#F7485F" offset="98.1983418%"></stop>
        </linearGradient>
        <radialGradient cx="50%" cy="14.4601942%" fx="50%" fy="14.4601942%" r="131.401743%" gradientTransform="translate(0.500000,0.144602),scale(1.000000,0.893080),rotate(90.000000),translate(-0.500000,-0.144602)" id="suakit_feature_1_radialGradient-7">
            <stop stop-color="#FFFFFF" offset="0%"></stop>
            <stop stop-color="#5F7591" offset="100%"></stop>
        </radialGradient>
        <linearGradient x1="0%" y1="6.93037428%" x2="100%" y2="100%" id="suakit_feature_1_linearGradient-8">
            <stop stop-color="#999CFF" offset="0%"></stop>
            <stop stop-color="#6096FF" offset="100%"></stop>
        </linearGradient>
        <linearGradient x1="-87.2768055%" y1="0%" x2="65.2157219%" y2="160.736863%" id="suakit_feature_1_linearGradient-9">
            <stop stop-color="#29DCF9" offset="0%"></stop>
            <stop stop-color="#1FF2D2" offset="100%"></stop>
        </linearGradient>
    </defs>
    <g id="suakit_feature_1_Page-1" stroke="none" stroke-width="1" fill="none" fill-rule="evenodd">
        <g id="suakit_feature_1_Product-suakit" transform="translate(-899.000000, -568.000000)">
            <g id="suakit_feature_1_suakit-feature-1" transform="translate(899.000000, 568.000000)">
                <rect id="suakit_feature_1_Rectangle-2" stroke="url(#suakit_feature_1_linearGradient-1)" stroke-width="3" x="16.5" y="29.5" width="56" height="48"></rect>
                <g id="suakit_feature_1_Group-6">
                    <g id="suakit_feature_1_Rectangle-16">
                        <use fill="#FFFFFF" fill-rule="evenodd" xlink:href="#suakit_feature_1_path-2"></use>
                        <rect stroke="#5F7591" stroke-width="2" x="1" y="1" width="135" height="146"></rect>
                    </g>
                    <g id="suakit_feature_1_Rectangle-16">
                        <use fill="#F5F7FB" fill-rule="evenodd" xlink:href="#suakit_feature_1_path-3"></use>
                        <rect stroke="#BBC2D0" stroke-width="1" x="9.69463087" y="8.77329193" width="118.530201" height="106.552795"></rect>
                    </g>
                </g>
                <g id="suakit_feature_1_Group-13" transform="translate(18.000000, 19.000000)" stroke="#5F7591" stroke-width="2">
                    <path d="M26.477019,5.27978311 C26.4659445,5.27873966 26.4549682,5.27821612 26.4440915,5.27821612 C23.1611601,5.27821612 20.5864966,-0.199999281 10.9134346,2.70634648 C3.18245973,5.02917726 0,13.2076699 0,21.9953688 C0,36.9096148 11.839423,49 26.4440915,49 C26.5597867,49 26.6738461,48.9972562 26.7862868,48.9918122 C35.8478275,48.9128459 43.8220935,44.1795918 48.5285642,37.0187912 C51.3525128,32.7222101 53,27.5516711 53,21.9881845 C53,13.2004856 49.8175403,5.02199294 42.0865654,2.69916217 C32.4135034,-0.207183597 29.8388399,5.27103181 26.5559085,5.27103181 C26.5301637,5.27103181 26.503861,5.27396492 26.477019,5.27978311 Z" id="suakit_feature_1_Combined-Shape" fill="url(#suakit_feature_1_radialGradient-4)"></path>
                    <path d="M21.0172414,8.32075472 C22.6925287,10.1698113 24.3678161,11.0943396 26.0431034,11.0943396 C27.7183908,11.0943396 29.3936782,10.1698113 31.0689655,8.32075472" id="suakit_feature_1_Path-7" stroke-linecap="round"></path>
                    <path d="M25.6285495,10.1698113 C25.4516826,8.87220367 25.8289012,7.17723512 26.7602052,5.08490566 C27.6915093,2.9925762 28.823165,1.29760765 30.1551724,0" id="suakit_feature_1_Path-8" stroke-linecap="round"></path>
                </g>
                <g id="suakit_feature_1_Group-21" transform="translate(63.000000, 13.000000)">
                    <g id="suakit_feature_1_Group-16" transform="translate(3.687500, 3.683168)" stroke="#5F7591">
                        <path d="M30.1055039,13.5430368 C30.1055039,20.3145552 34.1731933,28.4403772 27.393711,48.7549324 C22.9431173,62.0910294 14.1099356,71.4874306 0.894165913,76.9441361 L0.894156207,76.9441126 C0.519918752,77.0986328 0.275782212,77.4635635 0.275782212,77.8684464 L0.275782212,83.1702966 L0.27578309,83.1702966 C0.27578309,83.6384289 0.600546158,84.0439111 1.05737682,84.1461538 C16.0416232,87.4997594 27.5321942,85.1828113 35.5290897,77.1953097 C47.7321577,65.0065766 50.4439506,55.5264508 51.799847,44.6920214 C53.1557434,33.857592 46.673724,17.2014951 42.3085719,14.8973405 C39.4923685,13.4108016 37.2851524,8.71234068 35.6869234,0.801957626 L35.6869214,0.801958046 C35.5926656,0.335442293 35.1826719,-5.31518396e-16 34.7067296,-4.4408921e-16 L31.1055039,3.88205277e-17 L31.1055039,-6.66133815e-16 C30.5532192,-5.64680752e-16 30.1055039,0.44771525 30.1055039,1 C30.1055039,5.18101226 30.1055039,9.36202452 30.1055039,13.5430368 Z" id="suakit_feature_1_Path-11" stroke-width="2" fill="url(#suakit_feature_1_radialGradient-5)"></path>
                        <path d="M0.275782212,80.1089109 L0.275782212,83.170264 L0.275751284,83.170264 C0.275751284,83.6384111 0.600524633,84.0439063 1.05736978,84.1461523 C16.0416196,87.4997601 27.5321929,85.1828126 35.5290897,77.1953097 C47.7321577,65.0065766 50.4439506,55.5264508 51.799847,44.6920214 C53.1557434,33.857592 46.673724,17.2014951 42.3085719,14.8973405 C39.4923685,13.4108016 37.2851524,8.71234068 35.6869234,0.801957626 L35.6869214,0.801958046 C35.5926656,0.335442293 35.1826719,-6.37966042e-14 34.7067296,-5.01820807e-14 L33.1875,0 L35.03125,14.8973405 C39.8827979,32.5895425 38.6536313,47.5742574 31.34375,59.8514851 C24.0338687,72.1287129 13.6778795,78.8811881 0.275782212,80.1089109 Z" id="suakit_feature_1_Path-11"></path>
                        <polyline id="suakit_feature_1_Line-6" stroke-width="2" stroke-linecap="round" stroke-linejoin="round" points="30.8828125 0.920792079 34.109375 1.84158416 35.4921875 0.920792079"></polyline>
                    </g>
                    <rect id="suakit_feature_1_Rectangle-20" stroke="url(#suakit_feature_1_linearGradient-6)" stroke-width="2" transform="translate(29.500000, 46.500000) scale(-1, 1) translate(-29.500000, -46.500000) " x="1" y="1" width="57" height="91" rx="1"></rect>
                </g>
                <g id="suakit_feature_1_Group-20" transform="translate(23.000000, 73.000000)">
                    <g id="suakit_feature_1_Group-19">
                        <g id="suakit_feature_1_Group-17">
                            <path d="M23.1876861,39.5860114 C27.3179783,39.5860114 38.056738,25.6644959 38.056738,16.2139863 C38.056738,6.76347678 31.3996367,5.36268896 23.1876861,5.36268896 C14.9757355,5.36268896 7.49257584,6.76347678 7.49257584,16.2139863 C7.49257584,25.6644959 19.0573939,39.5860114 23.1876861,39.5860114 Z" id="suakit_feature_1_Oval-16" stroke="#5F7591" stroke-width="2" fill="url(#suakit_feature_1_radialGradient-7)" transform="translate(22.774657, 22.474350) rotate(-30.000000) translate(-22.774657, -22.474350) "></path>
                            <path d="M9.71556581,20.7596008 C10.3331001,20.1814191 10.6418673,19.6960813 10.6418673,19.3035872 C10.6418673,18.7148462 10.227148,18.6275809 9.71556581,18.6275809 C9.20398363,18.6275809 8.73780314,18.7148462 8.73780314,19.3035872 C8.73780314,19.6960813 9.06372403,20.1814191 9.71556581,20.7596008 Z" id="suakit_feature_1_Oval-16" fill="#8597AD" transform="translate(9.689835, 19.693591) rotate(-30.000000) translate(-9.689835, -19.693591) "></path>
                            <path d="M17.0488991,30.0171212 C17.6664335,29.4389395 17.9752006,28.9536017 17.9752006,28.5611076 C17.9752006,27.9723666 17.5604813,27.8851013 17.0488991,27.8851013 C16.537317,27.8851013 16.0711365,27.9723666 16.0711365,28.5611076 C16.0711365,28.9536017 16.3970574,29.4389395 17.0488991,30.0171212 Z" id="suakit_feature_1_Oval-16" fill="#8597AD" transform="translate(17.023169, 28.951111) rotate(-30.000000) translate(-17.023169, -28.951111) "></path>
                            <path d="M17.9655658,15.3232437 C18.5831001,14.745062 18.8918673,14.2597241 18.8918673,13.8672301 C18.8918673,13.2784891 18.477148,13.1912238 17.9655658,13.1912238 C17.4539836,13.1912238 16.9878031,13.2784891 16.9878031,13.8672301 C16.9878031,14.2597241 17.313724,14.745062 17.9655658,15.3232437 Z" id="suakit_feature_1_Oval-16" fill="#8597AD" transform="translate(17.939835, 14.257234) rotate(-30.000000) translate(-17.939835, -14.257234) "></path>
                            <path d="M25.2988991,25.4252845 C25.9164335,24.8471028 26.2252006,24.3617649 26.2252006,23.9692709 C26.2252006,23.3805299 25.8104813,23.2932646 25.2988991,23.2932646 C24.787317,23.2932646 24.3211365,23.3805299 24.3211365,23.9692709 C24.3211365,24.3617649 24.6470574,24.8471028 25.2988991,25.4252845 Z" id="suakit_feature_1_Oval-16" fill="#8597AD" transform="translate(25.273169, 24.359275) rotate(-30.000000) translate(-25.273169, -24.359275) "></path>
                            <path d="M30.7988991,35.5273253 C31.4164335,34.9491436 31.7252006,34.4638057 31.7252006,34.0713117 C31.7252006,33.4825707 31.3104813,33.3953054 30.7988991,33.3953054 C30.287317,33.3953054 29.8211365,33.4825707 29.8211365,34.0713117 C29.8211365,34.4638057 30.1470574,34.9491436 30.7988991,35.5273253 Z" id="suakit_feature_1_Oval-16" fill="#8597AD" transform="translate(30.773169, 34.461315) rotate(-30.000000) translate(-30.773169, -34.461315) "></path>
                            <path d="M32.6322325,20.8334477 C33.2497668,20.255266 33.558534,19.7699282 33.558534,19.3774342 C33.558534,18.7886931 33.1438147,18.7014279 32.6322325,18.7014279 C32.1206503,18.7014279 31.6544698,18.7886931 31.6544698,19.3774342 C31.6544698,19.7699282 31.9803907,20.255266 32.6322325,20.8334477 Z" id="suakit_feature_1_Oval-16" fill="#8597AD" transform="translate(32.606502, 19.767438) rotate(-30.000000) translate(-32.606502, -19.767438) "></path>
                            <path d="M24.3822325,32.7722233 C24.9997668,32.1940416 25.308534,31.7087037 25.308534,31.3162097 C25.308534,30.7274687 24.8938147,30.6402034 24.3822325,30.6402034 C23.8706503,30.6402034 23.4044698,30.7274687 23.4044698,31.3162097 C23.4044698,31.7087037 23.7303907,32.1940416 24.3822325,32.7722233 Z" id="suakit_feature_1_Oval-16" fill="#8597AD" transform="translate(24.356502, 31.706213) rotate(-30.000000) translate(-24.356502, -31.706213) "></path>
                            <path d="M30.7988991,29.0987539 C31.4164335,28.5205722 31.7252006,28.0352343 31.7252006,27.6427403 C31.7252006,27.0539993 31.3104813,26.966734 30.7988991,26.966734 C30.287317,26.966734 29.8211365,27.0539993 29.8211365,27.6427403 C29.8211365,28.0352343 30.1470574,28.5205722 30.7988991,29.0987539 Z" id="suakit_feature_1_Oval-16" fill="#8597AD" transform="translate(30.773169, 28.032744) rotate(-30.000000) translate(-30.773169, -28.032744) "></path>
                            <path d="M17.453369,23.0555192 C18.0709033,22.4773375 18.3796704,21.9919996 18.3796704,21.5995056 C18.3796704,21.0107646 17.9649511,20.9234993 17.453369,20.9234993 C16.9417868,20.9234993 16.4756063,21.0107646 16.4756063,21.5995056 C16.4756063,21.9919996 16.8015272,22.4773375 17.453369,23.0555192 Z" id="suakit_feature_1_Oval-16" fill="#8597AD" transform="translate(17.427638, 21.989509) rotate(-30.000000) translate(-17.427638, -21.989509) "></path>
                            <path d="M25.703369,18.4636824 C26.3209033,17.8855008 26.6296704,17.4001629 26.6296704,17.0076689 C26.6296704,16.4189278 26.2149511,16.3316626 25.703369,16.3316626 C25.1917868,16.3316626 24.7256063,16.4189278 24.7256063,17.0076689 C24.7256063,17.4001629 25.0515272,17.8855008 25.703369,18.4636824 Z" id="suakit_feature_1_Oval-16" fill="#8597AD" transform="translate(25.677638, 17.397673) rotate(-30.000000) translate(-25.677638, -17.397673) "></path>
                            <path d="M25.2988991,10.7314069 C25.9164335,10.1532252 26.2252006,9.66788738 26.2252006,9.27539336 C26.2252006,8.68665232 25.8104813,8.59938705 25.2988991,8.59938705 C24.787317,8.59938705 24.3211365,8.68665232 24.3211365,9.27539336 C24.3211365,9.66788738 24.6470574,10.1532252 25.2988991,10.7314069 Z" id="suakit_feature_1_Oval-16" fill="#8597AD" transform="translate(25.273169, 9.665397) rotate(-30.000000) translate(-25.273169, -9.665397) "></path>
                        </g>
                        <polygon id="suakit_feature_1_Path-13" stroke="#5F7591" fill="#5F7591" stroke-linecap="round" stroke-linejoin="round" points="12.25 9.18367347 9.25 7.04081633 13 7.75510204 11.5 2.75510204 15.25 6.32653061 16 2.75510204 17.5 6.32653061"></polygon>
                    </g>
                    <g id="suakit_feature_1_Group-18" transform="translate(1.916667, 0.918367)" stroke="url(#suakit_feature_1_linearGradient-8)" stroke-width="2">
                        <rect id="suakit_feature_1_Rectangle-20" x="1" y="1" width="34.6666667" height="37.4897959" rx="1"></rect>
                    </g>
                </g>
                <rect id="suakit_feature_1_Rectangle-20" stroke="url(#suakit_feature_1_linearGradient-9)" stroke-width="3" x="16.5" y="17.5" width="58" height="53" rx="1"></rect>
            </g>
        </g>
    </g>
</svg>
